<svg width="24" height="24" viewBox="0 0 24 24" fill="none" xmlns="http://www.w3.org/2000/svg">
<path fill-rule="evenodd" clip-rule="evenodd" d="M2 11.75C2 11.3358 2.44772 11 3 11H21C21.5523 11 22 11.3358 22 11.75C22 12.1642 21.5523 12.5 21 12.5H3C2.44772 12.5 2 12.1642 2 11.75Z" fill="black"/>
<path fill-rule="evenodd" clip-rule="evenodd" d="M2 5.75C2 5.33579 2.63959 5 3.42857 5L20.5714 5C21.3604 5 22 5.33578 22 5.75C22 6.16421 21.3604 6.5 20.5714 6.5L3.42857 6.5C2.63959 6.5 2 6.16421 2 5.75Z" fill="black"/>
<path fill-rule="evenodd" clip-rule="evenodd" d="M2 17.75C2 17.3358 2.49746 17 3.11111 17L20.8889 17C21.5025 17 22 17.3358 22 17.75C22 18.1642 21.5025 18.5 20.8889 18.5L3.11111 18.5C2.49746 18.5 2 18.1642 2 17.75Z" fill="black"/>
</svg>
