<svg width="25" height="24" viewBox="0 0 25 24" fill="none" xmlns="http://www.w3.org/2000/svg">
<path d="M12.5 9.75C12.09 9.75 11.75 9.41 11.75 9V3.81L11.03 4.53C10.74 4.82 10.26 4.82 9.97 4.53C9.68 4.24 9.68 3.76 9.97 3.47L11.97 1.47C12.18 1.26 12.51 1.19 12.79 1.31C13.07 1.42 13.25 1.7 13.25 2V9C13.25 9.41 12.91 9.75 12.5 9.75Z" fill="#FDB67F"/>
<path d="M14.5 4.75C14.31 4.75 14.12 4.68 13.97 4.53L11.97 2.53C11.68 2.24 11.68 1.76 11.97 1.47C12.26 1.18 12.74 1.18 13.03 1.47L15.03 3.47C15.32 3.76 15.32 4.24 15.03 4.53C14.88 4.68 14.69 4.75 14.5 4.75Z" fill="#FDB67F"/>
<path d="M14.26 17.75H10.73C9.68001 17.75 8.74001 17.17 8.27001 16.23L7.10001 13.89C7.06001 13.8 6.97001 13.75 6.88001 13.75H2.48001C2.07001 13.75 1.73001 13.41 1.73001 13C1.73001 12.59 2.07001 12.25 2.48001 12.25H6.89001C7.56001 12.25 8.16001 12.62 8.46001 13.22L9.63001 15.56C9.84001 15.99 10.27 16.25 10.75 16.25H14.28C14.76 16.25 15.19 15.99 15.4 15.56L16.57 13.22C16.87 12.62 17.47 12.25 18.14 12.25H22.5C22.91 12.25 23.25 12.59 23.25 13C23.25 13.41 22.91 13.75 22.5 13.75H18.14C18.04 13.75 17.96 13.8 17.92 13.89L16.75 16.23C16.25 17.17 15.31 17.75 14.26 17.75Z" fill="#FDB67F"/>
<path d="M15.5 22.75H9.5C4.07 22.75 1.75 20.43 1.75 15V12C1.75 7.31 3.49 4.96 7.39 4.39C7.81 4.33 8.18 4.61 8.24 5.02C8.3 5.43 8.02 5.81 7.61 5.87C4.47 6.33 3.25 8.05 3.25 12V15C3.25 19.61 4.89 21.25 9.5 21.25H15.5C20.11 21.25 21.75 19.61 21.75 15V12C21.75 8.05 20.53 6.33 17.39 5.87C16.98 5.81 16.7 5.43 16.76 5.02C16.82 4.61 17.2 4.33 17.61 4.39C21.51 4.96 23.25 7.31 23.25 12V15C23.25 20.43 20.93 22.75 15.5 22.75Z" fill="#FDB67F"/>
</svg>
