<svg width="16" height="16" viewBox="0 0 16 16" fill="none" xmlns="http://www.w3.org/2000/svg">
<path d="M8.00001 1.33337C4.32668 1.33337 1.33334 4.32671 1.33334 8.00004C1.33334 11.6734 4.32668 14.6667 8.00001 14.6667C11.6733 14.6667 14.6667 11.6734 14.6667 8.00004C14.6667 4.32671 11.6733 1.33337 8.00001 1.33337ZM11.1867 6.46671L7.40668 10.2467C7.31334 10.34 7.18668 10.3934 7.05334 10.3934C6.92001 10.3934 6.79334 10.34 6.70001 10.2467L4.81334 8.36004C4.62001 8.16671 4.62001 7.84671 4.81334 7.65337C5.00668 7.46004 5.32668 7.46004 5.52001 7.65337L7.05334 9.18671L10.48 5.76004C10.6733 5.56671 10.9933 5.56671 11.1867 5.76004C11.38 5.95337 11.38 6.26671 11.1867 6.46671Z" fill="#F77F00"/>
</svg>
