<svg width="24" height="24" viewBox="0 0 24 24" fill="none" xmlns="http://www.w3.org/2000/svg">
<g clip-path="url(#clip0_2_2645)">
<path fill-rule="evenodd" clip-rule="evenodd" d="M21.0678 0C22.6861 0 24 1.31391 24 2.93222V21.0678C24 22.6861 22.6861 24 21.0678 24H16.0771V14.9571H19.199L19.793 11.0843H16.0771V8.57095C16.0771 7.51144 16.5961 6.47864 18.2605 6.47864H19.95V3.18145C19.95 3.18145 18.4167 2.9198 16.9508 2.9198C13.8905 2.9198 11.8902 4.77459 11.8902 8.13248V11.0843H8.48836V14.9571H11.8902V24H2.93222C1.31391 24 0 22.6861 0 21.0678V2.93222C0 1.31391 1.31386 0 2.93222 0H21.0678V0Z" fill="black"/>
</g>
<defs>
<clipPath id="clip0_2_2645">
<rect width="24" height="24" fill="white"/>
</clipPath>
</defs>
</svg>
