<svg width="24" height="24" viewBox="0 0 24 24" fill="none" xmlns="http://www.w3.org/2000/svg">
<path d="M6.96635 0C3.12981 0 0 3.12981 0 6.96635V17.0337C0 20.8702 3.12981 24 6.96635 24H17.0337C20.8702 24 24 20.8702 24 17.0337V6.96635C24 3.12981 20.8702 0 17.0337 0H6.96635ZM6.96635 1.84615H17.0337C19.8714 1.84615 22.1538 4.125 22.1538 6.96635V17.0337C22.1538 19.8714 19.875 22.1538 17.0337 22.1538H6.96635C4.12861 22.1538 1.84615 19.875 1.84615 17.0337V6.96635C1.84615 4.12861 4.125 1.84615 6.96635 1.84615ZM18.9231 3.69231C18.1587 3.69231 17.5385 4.3125 17.5385 5.07692C17.5385 5.84135 18.1587 6.46154 18.9231 6.46154C19.6875 6.46154 20.3077 5.84135 20.3077 5.07692C20.3077 4.3125 19.6875 3.69231 18.9231 3.69231ZM12 5.53846C8.44111 5.53846 5.53846 8.44111 5.53846 12C5.53846 15.5589 8.44111 18.4615 12 18.4615C15.5589 18.4615 18.4615 15.5589 18.4615 12C18.4615 8.44111 15.5589 5.53846 12 5.53846ZM12 7.38462C14.5601 7.38462 16.6154 9.4399 16.6154 12C16.6154 14.5601 14.5601 16.6154 12 16.6154C9.4399 16.6154 7.38462 14.5601 7.38462 12C7.38462 9.4399 9.4399 7.38462 12 7.38462Z" fill="#495057"/>
</svg>
