<svg width="24" height="24" viewBox="0 0 24 24" fill="none" xmlns="http://www.w3.org/2000/svg">
<path d="M17.9999 14.7224C17.1085 14.7224 16.3067 15.0974 15.7375 15.6959L9.08612 12.4395C9.109 12.2865 9.12475 12.1316 9.12475 11.9722C9.12475 11.817 9.10975 11.6655 9.088 11.5166L15.7296 8.2957C16.2992 8.89908 17.1047 9.27783 17.9999 9.27783C19.7256 9.27783 21.1247 7.8787 21.1247 6.15295C21.1247 4.42683 19.7256 3.02808 17.9999 3.02808C16.2741 3.02808 14.875 4.42683 14.875 6.15295C14.875 6.3082 14.89 6.45933 14.9117 6.60858L8.27012 9.82945C7.7005 9.22608 6.89537 8.84733 5.99987 8.84733C4.27375 8.84733 2.875 10.2465 2.875 11.9722C2.875 13.6983 4.27375 15.0971 5.99987 15.0971C6.89125 15.0971 7.693 14.7221 8.26225 14.1236L14.9136 17.3801C14.8907 17.5327 14.875 17.6879 14.875 17.8473C14.875 19.5734 16.2741 20.9722 17.9999 20.9722C19.7256 20.9722 21.1247 19.5734 21.1247 17.8473C21.1247 16.1212 19.7256 14.7224 17.9999 14.7224Z" fill="black"/>
</svg>
