<svg width="24" height="24" viewBox="0 0 24 24" fill="none" xmlns="http://www.w3.org/2000/svg">
<path d="M19.5526 2.99699C19.3006 3.00871 19.0633 3.08195 18.8524 3.16398H18.8494C18.6356 3.24895 17.619 3.67668 16.075 4.32414C14.5311 4.97453 12.5272 5.81828 10.5379 6.65617C6.56526 8.32902 2.65999 9.97551 2.65999 9.97551L2.70686 9.95793C2.70686 9.95793 2.43733 10.0458 2.15608 10.2392C2.01252 10.3329 1.85432 10.4618 1.71663 10.664C1.57893 10.8661 1.4676 11.1767 1.50862 11.496C1.576 12.038 1.92756 12.3632 2.17952 12.5419C2.4344 12.7236 2.67756 12.8085 2.67756 12.8085H2.68342L6.34553 14.0419C6.50959 14.5693 7.46174 17.6982 7.69026 18.4189C7.82502 18.8495 7.95686 19.1191 8.12092 19.3241C8.20002 19.4296 8.29377 19.5175 8.4051 19.5878C8.44905 19.6142 8.49592 19.6347 8.5428 19.6523C8.55745 19.6611 8.57209 19.664 8.58967 19.6669L8.55159 19.6581C8.5633 19.6611 8.57209 19.6698 8.58088 19.6728C8.61018 19.6816 8.63069 19.6845 8.66877 19.6904C9.24885 19.8661 9.71467 19.5058 9.71467 19.5058L9.74104 19.4853L11.9031 17.5165L15.5272 20.2968L15.6092 20.332C16.3651 20.663 17.1297 20.4784 17.534 20.1532C17.9412 19.8251 18.0994 19.4062 18.0994 19.4062L18.1258 19.3388L20.9266 4.99211C21.0057 4.63762 21.0262 4.30656 20.9383 3.9843C20.8504 3.66203 20.6248 3.36027 20.3524 3.19914C20.077 3.03508 19.8045 2.98527 19.5526 2.99699ZM19.4764 4.53508C19.4735 4.58195 19.4823 4.57609 19.4617 4.66691V4.6757L16.6873 18.873C16.6756 18.8935 16.6551 18.9374 16.5994 18.9814C16.5408 19.0282 16.494 19.0575 16.2508 18.9609L11.8182 15.5624L9.14045 18.0029L9.70295 14.4111C9.70295 14.4111 16.6463 7.93937 16.9451 7.66105C17.244 7.38273 17.1444 7.32414 17.1444 7.32414C17.1649 6.9843 16.6932 7.22453 16.6932 7.22453L7.56135 12.8818L7.55842 12.8671L3.18147 11.3935V11.3905C3.17854 11.3905 3.17268 11.3876 3.16975 11.3876C3.17268 11.3876 3.19319 11.3788 3.19319 11.3788L3.21663 11.3671L3.24006 11.3583C3.24006 11.3583 7.14827 9.71184 11.1209 8.03898C13.1102 7.20109 15.1141 6.35734 16.6551 5.70695C18.1961 5.05949 19.3358 4.58488 19.4002 4.55852C19.4617 4.53508 19.4324 4.53508 19.4764 4.53508Z" fill="#495057"/>
</svg>
