<svg width="24" height="24" viewBox="0 0 24 24" fill="none" xmlns="http://www.w3.org/2000/svg">
<path d="M22.3678 6.37751C21.6012 6.71829 20.7761 6.94816 19.9104 7.05103C20.7943 6.52187 21.472 5.68367 21.7917 4.68376C20.9649 5.1744 20.0497 5.53042 19.0747 5.72262C18.2945 4.89119 17.1824 4.37134 15.9518 4.37134C13.5892 4.37134 11.6736 6.28692 11.6736 8.64996C11.6736 8.98482 11.7113 9.31121 11.7845 9.6249C8.22851 9.44625 5.07553 7.74318 2.96521 5.1545C2.59692 5.78612 2.3861 6.52102 2.3861 7.30588C2.3861 8.79008 3.14132 10.0999 4.2894 10.867C3.58836 10.8445 2.92838 10.6519 2.35138 10.3314C2.35096 10.3492 2.35096 10.3674 2.35096 10.3856C2.35096 12.4583 3.82585 14.1872 5.78334 14.5809C5.42435 14.6782 5.04632 14.7307 4.65601 14.7307C4.37999 14.7307 4.11202 14.704 3.85083 14.6537C4.39566 16.3533 5.97553 17.5907 7.84751 17.625C6.3832 18.7727 4.53874 19.4568 2.53384 19.4568C2.18882 19.4568 1.84804 19.4365 1.51318 19.3967C3.40717 20.6112 5.65592 21.319 8.07188 21.319C15.9421 21.319 20.2452 14.7997 20.2452 9.14568C20.2452 8.96026 20.2414 8.77527 20.2334 8.59154C21.069 7.98956 21.7946 7.23561 22.3678 6.37751Z" fill="black"/>
</svg>
